<svg width="512" height="512" viewBox="0 0 512 512" fill="none" xmlns="http://www.w3.org/2000/svg">
  <defs>
    <linearGradient id="cBg" x1="0" y1="0" x2="512" y2="512" gradientUnits="userSpaceOnUse">
      <stop offset="0" stop-color="#10B981"/>
      <stop offset="1" stop-color="#059669"/>
    </linearGradient>
  </defs>
  <rect width="512" height="512" rx="112" fill="url(#cBg)"/>
  <!-- clipboard board -->
  <rect x="136" y="138" width="240" height="296" rx="30" fill="#ffffff"/>
  <!-- clip -->
  <rect x="206" y="120" width="100" height="48" rx="16" fill="#047857"/>
  <rect x="232" y="108" width="48" height="32" rx="14" fill="#047857"/>
  <!-- checklist rows -->
  <circle cx="184" cy="226" r="13" fill="#10B981"/>
  <path d="M177 226 l5 6 l9 -12" stroke="#ffffff" stroke-width="4" stroke-linecap="round" stroke-linejoin="round" fill="none"/>
  <rect x="210" y="218" width="118" height="16" rx="8" fill="#A7F3D0"/>

  <circle cx="184" cy="284" r="13" fill="#10B981"/>
  <path d="M177 284 l5 6 l9 -12" stroke="#ffffff" stroke-width="4" stroke-linecap="round" stroke-linejoin="round" fill="none"/>
  <rect x="210" y="276" width="118" height="16" rx="8" fill="#A7F3D0"/>

  <circle cx="184" cy="342" r="13" fill="#D1FAE5"/>
  <rect x="210" y="334" width="90" height="16" rx="8" fill="#D1FAE5"/>
</svg>
